<svg width="53" height="61" viewBox="0 0 53 61" fill="none" xmlns="http://www.w3.org/2000/svg">
<ellipse cx="16.9259" cy="50.963" rx="1.92593" ry="0.962963" fill="#1D1D1D"/>
<g filter="url(#filter0_f)">
<line x1="17.8306" y1="50.5296" x2="42.8306" y2="41.5296" stroke="#808080"/>
</g>
<mask id="path-3-inside-1" fill="white">
<path fill-rule="evenodd" clip-rule="evenodd" d="M17.8889 31.6531C25.72 30.6696 31.7778 23.9867 31.7778 15.8889C31.7778 7.1137 24.6641 0 15.8889 0C7.1137 0 0 7.1137 0 15.8889C0 24.6641 7.1137 31.7778 15.8889 31.7778C15.8889 31.7778 15.8889 31.7778 15.8889 31.7778V50.5185C15.8889 51.0708 16.3366 51.5185 16.8889 51.5185C17.4412 51.5185 17.8889 51.0708 17.8889 50.5185V31.6531Z"/>
</mask>
<path fill-rule="evenodd" clip-rule="evenodd" d="M17.8889 31.6531C25.72 30.6696 31.7778 23.9867 31.7778 15.8889C31.7778 7.1137 24.6641 0 15.8889 0C7.1137 0 0 7.1137 0 15.8889C0 24.6641 7.1137 31.7778 15.8889 31.7778C15.8889 31.7778 15.8889 31.7778 15.8889 31.7778V50.5185C15.8889 51.0708 16.3366 51.5185 16.8889 51.5185C17.4412 51.5185 17.8889 51.0708 17.8889 50.5185V31.6531Z" fill="white"/>
<path d="M17.8889 31.6531L17.6397 29.6687L15.8889 29.8886V31.6531H17.8889ZM15.8889 31.7778H17.8889V29.7778H15.8889V31.7778ZM29.7778 15.8889C29.7778 22.9658 24.483 28.8092 17.6397 29.6687L18.1381 33.6375C26.957 32.5299 33.7778 25.0075 33.7778 15.8889H29.7778ZM15.8889 2C23.5595 2 29.7778 8.21827 29.7778 15.8889H33.7778C33.7778 6.00913 25.7686 -2 15.8889 -2V2ZM2 15.8889C2 8.21827 8.21827 2 15.8889 2V-2C6.00913 -2 -2 6.00913 -2 15.8889H2ZM15.8889 29.7778C8.21827 29.7778 2 23.5595 2 15.8889H-2C-2 25.7686 6.00913 33.7778 15.8889 33.7778V29.7778ZM15.8889 29.7778C15.8889 29.7778 15.8889 29.7778 15.8889 29.7778C15.8889 29.7778 15.8889 29.7778 15.8889 29.7778C15.8889 29.7778 15.8889 29.7778 15.8889 29.7778C15.8889 29.7778 15.8889 29.7778 15.8889 29.7778C15.8889 29.7778 15.8889 29.7778 15.8889 29.7778C15.8889 29.7778 15.8889 29.7778 15.8889 29.7778C15.8889 29.7778 15.8889 29.7778 15.8889 29.7778C15.8889 29.7778 15.8889 29.7778 15.8889 29.7778C15.8889 29.7778 15.8889 29.7778 15.8889 29.7778C15.8889 29.7778 15.8889 29.7778 15.8889 29.7778C15.8889 29.7778 15.8889 29.7778 15.8889 29.7778C15.8889 29.7778 15.8889 29.7778 15.8889 29.7778C15.8889 29.7778 15.8889 29.7778 15.8889 29.7778C15.8889 29.7778 15.8889 29.7778 15.8889 29.7778C15.8889 29.7778 15.8889 29.7778 15.8889 29.7778C15.8889 29.7778 15.8889 29.7778 15.8889 29.7778C15.8889 29.7778 15.8889 29.7778 15.8889 29.7778C15.8889 29.7778 15.8889 29.7778 15.8889 29.7778C15.8889 29.7778 15.8889 29.7778 15.8889 29.7778C15.8889 29.7778 15.8889 29.7778 15.8889 29.7778C15.8889 29.7778 15.8889 29.7778 15.8889 29.7778C15.8889 29.7778 15.8889 29.7778 15.8889 29.7778C15.8889 29.7778 15.8889 29.7778 15.8889 29.7778C15.8889 29.7778 15.8889 29.7778 15.8889 29.7778C15.8889 29.7778 15.8889 29.7778 15.8889 29.7778C15.8889 29.7778 15.8889 29.7778 15.8889 29.7778C15.8889 29.7778 15.8889 29.7778 15.8889 29.7778C15.8889 29.7778 15.8889 29.7778 15.8889 29.7778C15.8889 29.7778 15.8889 29.7778 15.8889 29.7778C15.8889 29.7778 15.8889 29.7778 15.8889 29.7778C15.8889 29.7778 15.8889 29.7778 15.8889 29.7778C15.8889 29.7778 15.8889 29.7778 15.8889 29.7778C15.8889 29.7778 15.8889 29.7778 15.8889 29.7778C15.8889 29.7778 15.8889 29.7778 15.8889 29.7778C15.8889 29.7778 15.8889 29.7778 15.8889 29.7778C15.8889 29.7778 15.8889 29.7778 15.8889 29.7778C15.8889 29.7778 15.8889 29.7778 15.8889 29.7778C15.8889 29.7778 15.8889 29.7778 15.8889 29.7778C15.8889 29.7778 15.8889 29.7778 15.8889 29.7778C15.8889 29.7778 15.8889 29.7778 15.8889 29.7778C15.8889 29.7778 15.8889 29.7778 15.8889 29.7778C15.8889 29.7778 15.8889 29.7778 15.8889 29.7778C15.8889 29.7778 15.8889 29.7778 15.8889 29.7778C15.8889 29.7778 15.8889 29.7778 15.8889 29.7778C15.8889 29.7778 15.8889 29.7778 15.8889 29.7778C15.8889 29.7778 15.8889 29.7778 15.8889 29.7778C15.8889 29.7778 15.8889 29.7778 15.8889 29.7778C15.8889 29.7778 15.8889 29.7778 15.8889 29.7778C15.8889 29.7778 15.8889 29.7778 15.8889 29.7778C15.8889 29.7778 15.8889 29.7778 15.8889 29.7778C15.8889 29.7778 15.8889 29.7778 15.8889 29.7778C15.8889 29.7778 15.8889 29.7778 15.8889 29.7778C15.8889 29.7778 15.8889 29.7778 15.8889 29.7778C15.8889 29.7778 15.8889 29.7778 15.8889 29.7778C15.8889 29.7778 15.8889 29.7778 15.8889 29.7778C15.8889 29.7778 15.8889 29.7778 15.8889 29.7778C15.8889 29.7778 15.8889 29.7778 15.8889 29.7778C15.8889 29.7778 15.8889 29.7778 15.8889 29.7778C15.8889 29.7778 15.8889 29.7778 15.8889 29.7778C15.8889 29.7778 15.8889 29.7778 15.8889 29.7778C15.8889 29.7778 15.8889 29.7778 15.8889 29.7778C15.8889 29.7778 15.8889 29.7778 15.8889 29.7778C15.8889 29.7778 15.8889 29.7778 15.8889 29.7778C15.8889 29.7778 15.8889 29.7778 15.8889 29.7778C15.8889 29.7778 15.8889 29.7778 15.8889 29.7778C15.8889 29.7778 15.8889 29.7778 15.8889 29.7778C15.8889 29.7778 15.8889 29.7778 15.8889 29.7778C15.8889 29.7778 15.8889 29.7778 15.8889 29.7778C15.8889 29.7778 15.8889 29.7778 15.8889 29.7778C15.8889 29.7778 15.8889 29.7778 15.8889 29.7778C15.8889 29.7778 15.8889 29.7778 15.8889 29.7778C15.8889 29.7778 15.8889 29.7778 15.8889 29.7778C15.8889 29.7778 15.8889 29.7778 15.8889 29.7778C15.8889 29.7778 15.8889 29.7778 15.8889 29.7778C15.8889 29.7778 15.8889 29.7778 15.8889 29.7778C15.8889 29.7778 15.8889 29.7778 15.8889 29.7778C15.8889 29.7778 15.8889 29.7778 15.8889 29.7778C15.8889 29.7778 15.8889 29.7778 15.8889 29.7778C15.8889 29.7778 15.8889 29.7778 15.8889 29.7778C15.8889 29.7778 15.8889 29.7778 15.8889 29.7778C15.8889 29.7778 15.8889 29.7778 15.8889 29.7778C15.8889 29.7778 15.8889 29.7778 15.8889 29.7778C15.8889 29.7778 15.8889 29.7778 15.8889 29.7778C15.8889 29.7778 15.8889 29.7778 15.8889 29.7778C15.8889 29.7778 15.8889 29.7778 15.8889 29.7778C15.8889 29.7778 15.8889 29.7778 15.8889 29.7778C15.8889 29.7778 15.8889 29.7778 15.8889 29.7778C15.8889 29.7778 15.8889 29.7778 15.8889 29.7778C15.8889 29.7778 15.8889 29.7778 15.8889 29.7778C15.8889 29.7778 15.8889 29.7778 15.8889 29.7778C15.8889 29.7778 15.8889 29.7778 15.8889 29.7778C15.8889 29.7778 15.8889 29.7778 15.8889 29.7778C15.8889 29.7778 15.8889 29.7778 15.8889 29.7778C15.8889 29.7778 15.8889 29.7778 15.8889 29.7778C15.8889 29.7778 15.8889 29.7778 15.8889 29.7778C15.8889 29.7778 15.8889 29.7778 15.8889 29.7778C15.8889 29.7778 15.8889 29.7778 15.8889 29.7778C15.8889 29.7778 15.8889 29.7778 15.8889 29.7778C15.8889 29.7778 15.8889 29.7778 15.8889 29.7778C15.8889 29.7778 15.8889 29.7778 15.8889 29.7778C15.8889 29.7778 15.8889 29.7778 15.8889 29.7778C15.8889 29.7778 15.8889 29.7778 15.8889 29.7778C15.8889 29.7778 15.8889 29.7778 15.8889 29.7778C15.8889 29.7778 15.8889 29.7778 15.8889 29.7778C15.8889 29.7778 15.8889 29.7778 15.8889 29.7778C15.8889 29.7778 15.8889 29.7778 15.8889 29.7778C15.8889 29.7778 15.8889 29.7778 15.8889 29.7778C15.8889 29.7778 15.8889 29.7778 15.8889 29.7778C15.8889 29.7778 15.8889 29.7778 15.8889 29.7778C15.8889 29.7778 15.8889 29.7778 15.8889 29.7778C15.8889 29.7778 15.8889 29.7778 15.8889 29.7778C15.8889 29.7778 15.8889 29.7778 15.8889 29.7778C15.8889 29.7778 15.8889 29.7778 15.8889 29.7778C15.8889 29.7778 15.8889 29.7778 15.8889 29.7778C15.8889 29.7778 15.8889 29.7778 15.8889 29.7778C15.8889 29.7778 15.8889 29.7778 15.8889 29.7778C15.8889 29.7778 15.8889 29.7778 15.8889 29.7778C15.8889 29.7778 15.8889 29.7778 15.8889 29.7778C15.8889 29.7778 15.8889 29.7778 15.8889 29.7778C15.8889 29.7778 15.8889 29.7778 15.8889 29.7778C15.8889 29.7778 15.8889 29.7778 15.8889 29.7778C15.8889 29.7778 15.8889 29.7778 15.8889 29.7778C15.8889 29.7778 15.8889 29.7778 15.8889 29.7778C15.8889 29.7778 15.8889 29.7778 15.8889 29.7778C15.8889 29.7778 15.8889 29.7778 15.8889 29.7778C15.8889 29.7778 15.8889 29.7778 15.8889 29.7778C15.8889 29.7778 15.8889 29.7778 15.8889 29.7778C15.8889 29.7778 15.8889 29.7778 15.8889 29.7778C15.8889 29.7778 15.8889 29.7778 15.8889 29.7778C15.8889 29.7778 15.8889 29.7778 15.8889 29.7778C15.8889 29.7778 15.8889 29.7778 15.8889 29.7778C15.8889 29.7778 15.8889 29.7778 15.8889 29.7778C15.8889 29.7778 15.8889 29.7778 15.8889 29.7778C15.8889 29.7778 15.8889 29.7778 15.8889 29.7778C15.8889 29.7778 15.8889 29.7778 15.8889 29.7778C15.8889 29.7778 15.8889 29.7778 15.8889 29.7778C15.8889 29.7778 15.8889 29.7778 15.8889 29.7778C15.8889 29.7778 15.8889 29.7778 15.8889 29.7778C15.8889 29.7778 15.8889 29.7778 15.8889 29.7778C15.8889 29.7778 15.8889 29.7778 15.8889 29.7778C15.8889 29.7778 15.8889 29.7778 15.8889 29.7778C15.8889 29.7778 15.8889 29.7778 15.8889 29.7778C15.8889 29.7778 15.8889 29.7778 15.8889 29.7778C15.8889 29.7778 15.8889 29.7778 15.8889 29.7778C15.8889 29.7778 15.8889 29.7778 15.8889 29.7778C15.8889 29.7778 15.8889 29.7778 15.8889 29.7778C15.8889 29.7778 15.8889 29.7778 15.8889 29.7778C15.8889 29.7778 15.8889 29.7778 15.8889 29.7778C15.8889 29.7778 15.8889 29.7778 15.8889 29.7778C15.8889 29.7778 15.8889 29.7778 15.8889 29.7778C15.8889 29.7778 15.8889 29.7778 15.8889 29.7778C15.8889 29.7778 15.8889 29.7778 15.8889 29.7778C15.8889 29.7778 15.8889 29.7778 15.8889 29.7778C15.8889 29.7778 15.8889 29.7778 15.8889 29.7778C15.8889 29.7778 15.8889 29.7778 15.8889 29.7778C15.8889 29.7778 15.8889 29.7778 15.8889 29.7778C15.8889 29.7778 15.8889 29.7778 15.8889 29.7778C15.8889 29.7778 15.8889 29.7778 15.8889 29.7778C15.8889 29.7778 15.8889 29.7778 15.8889 29.7778C15.8889 29.7778 15.8889 29.7778 15.8889 29.7778C15.8889 29.7778 15.8889 29.7778 15.8889 29.7778C15.8889 29.7778 15.8889 29.7778 15.8889 29.7778C15.8889 29.7778 15.8889 29.7778 15.8889 29.7778C15.8889 29.7778 15.8889 29.7778 15.8889 29.7778C15.8889 29.7778 15.8889 29.7778 15.8889 29.7778C15.8889 29.7778 15.8889 29.7778 15.8889 29.7778C15.8889 29.7778 15.8889 29.7778 15.8889 29.7778C15.8889 29.7778 15.8889 29.7778 15.8889 29.7778C15.8889 29.7778 15.8889 29.7778 15.8889 29.7778C15.8889 29.7778 15.8889 29.7778 15.8889 29.7778C15.8889 29.7778 15.8889 29.7778 15.8889 29.7778C15.8889 29.7778 15.8889 29.7778 15.8889 29.7778C15.8889 29.7778 15.8889 29.7778 15.8889 29.7778C15.8889 29.7778 15.8889 29.7778 15.8889 29.7778C15.8889 29.7778 15.8889 29.7778 15.8889 29.7778C15.8889 29.7778 15.8889 29.7778 15.8889 29.7778C15.8889 29.7778 15.8889 29.7778 15.8889 29.7778C15.8889 29.7778 15.8889 29.7778 15.8889 29.7778C15.8889 29.7778 15.8889 29.7778 15.8889 29.7778C15.8889 29.7778 15.8889 29.7778 15.8889 29.7778C15.8889 29.7778 15.8889 29.7778 15.8889 29.7778C15.8889 29.7778 15.8889 29.7778 15.8889 29.7778C15.8889 29.7778 15.8889 29.7778 15.8889 29.7778C15.8889 29.7778 15.8889 29.7778 15.8889 29.7778C15.8889 29.7778 15.8889 29.7778 15.8889 29.7778C15.8889 29.7778 15.8889 29.7778 15.8889 29.7778C15.8889 29.7778 15.8889 29.7778 15.8889 29.7778C15.8889 29.7778 15.8889 29.7778 15.8889 29.7778C15.8889 29.7778 15.8889 29.7778 15.8889 29.7778C15.8889 29.7778 15.8889 29.7778 15.8889 29.7778C15.8889 29.7778 15.8889 29.7778 15.8889 29.7778C15.8889 29.7778 15.8889 29.7778 15.8889 29.7778C15.8889 29.7778 15.8889 29.7778 15.8889 29.7778C15.8889 29.7778 15.8889 29.7778 15.8889 29.7778C15.8889 29.7778 15.8889 29.7778 15.8889 29.7778C15.8889 29.7778 15.8889 29.7778 15.8889 29.7778C15.8889 29.7778 15.8889 29.7778 15.8889 29.7778C15.8889 29.7778 15.8889 29.7778 15.8889 29.7778C15.8889 29.7778 15.8889 29.7778 15.8889 29.7778C15.8889 29.7778 15.8889 29.7778 15.8889 29.7778C15.8889 29.7778 15.8889 29.7778 15.8889 29.7778C15.8889 29.7778 15.8889 29.7778 15.8889 29.7778C15.8889 29.7778 15.8889 29.7778 15.8889 29.7778C15.8889 29.7778 15.8889 29.7778 15.8889 29.7778C15.8889 29.7778 15.8889 29.7778 15.8889 29.7778C15.8889 29.7778 15.8889 29.7778 15.8889 29.7778C15.8889 29.7778 15.8889 29.7778 15.8889 29.7778C15.8889 29.7778 15.8889 29.7778 15.8889 29.7778C15.8889 29.7778 15.8889 29.7778 15.8889 29.7778C15.8889 29.7778 15.8889 29.7778 15.8889 29.7778C15.8889 29.7778 15.8889 29.7778 15.8889 29.7778C15.8889 29.7778 15.8889 29.7778 15.8889 29.7778C15.8889 29.7778 15.8889 29.7778 15.8889 29.7778C15.8889 29.7778 15.8889 29.7778 15.8889 29.7778C15.8889 29.7778 15.8889 29.7778 15.8889 29.7778C15.8889 29.7778 15.8889 29.7778 15.8889 29.7778C15.8889 29.7778 15.8889 29.7778 15.8889 29.7778C15.8889 29.7778 15.8889 29.7778 15.8889 29.7778C15.8889 29.7778 15.8889 29.7778 15.8889 29.7778C15.8889 29.7778 15.8889 29.7778 15.8889 29.7778C15.8889 29.7778 15.8889 29.7778 15.8889 29.7778C15.8889 29.7778 15.8889 29.7778 15.8889 29.7778C15.8889 29.7778 15.8889 29.7778 15.8889 29.7778C15.8889 29.7778 15.8889 29.7778 15.8889 29.7778C15.8889 29.7778 15.8889 29.7778 15.8889 29.7778C15.8889 29.7778 15.8889 29.7778 15.8889 29.7778C15.8889 29.7778 15.8889 29.7778 15.8889 29.7778C15.8889 29.7778 15.8889 29.7778 15.8889 29.7778C15.8889 29.7778 15.8889 29.7778 15.8889 29.7778C15.8889 29.7778 15.8889 29.7778 15.8889 29.7778C15.8889 29.7778 15.8889 29.7778 15.8889 29.7778C15.8889 29.7778 15.8889 29.7778 15.8889 29.7778C15.8889 29.7778 15.8889 29.7778 15.8889 29.7778C15.8889 29.7778 15.8889 29.7778 15.8889 29.7778C15.8889 29.7778 15.8889 29.7778 15.8889 29.7778C15.8889 29.7778 15.8889 29.7778 15.8889 29.7778C15.8889 29.7778 15.8889 29.7778 15.8889 29.7778C15.8889 29.7778 15.8889 29.7778 15.8889 29.7778C15.8889 29.7778 15.8889 29.7778 15.8889 29.7778C15.8889 29.7778 15.8889 29.7778 15.8889 29.7778C15.8889 29.7778 15.8889 29.7778 15.8889 29.7778C15.8889 29.7778 15.8889 29.7778 15.8889 29.7778C15.8889 29.7778 15.8889 29.7778 15.8889 29.7778C15.8889 29.7778 15.8889 29.7778 15.8889 29.7778C15.8889 29.7778 15.8889 29.7778 15.8889 29.7778C15.8889 29.7778 15.8889 29.7778 15.8889 29.7778C15.8889 29.7778 15.8889 29.7778 15.8889 29.7778C15.8889 29.7778 15.8889 29.7778 15.8889 29.7778C15.8889 29.7778 15.8889 29.7778 15.8889 29.7778C15.8889 29.7778 15.8889 29.7778 15.8889 29.7778C15.8889 29.7778 15.8889 29.7778 15.8889 29.7778C15.8889 29.7778 15.8889 29.7778 15.8889 29.7778C15.8889 29.7778 15.8889 29.7778 15.8889 29.7778C15.8889 29.7778 15.8889 29.7778 15.8889 29.7778C15.8889 29.7778 15.8889 29.7778 15.8889 29.7778C15.8889 29.7778 15.8889 29.7778 15.8889 29.7778C15.8889 29.7778 15.8889 29.7778 15.8889 29.7778C15.8889 29.7778 15.8889 29.7778 15.8889 29.7778C15.8889 29.7778 15.8889 29.7778 15.8889 29.7778C15.8889 29.7778 15.8889 29.7778 15.8889 29.7778C15.8889 29.7778 15.8889 29.7778 15.8889 29.7778C15.8889 29.7778 15.8889 29.7778 15.8889 29.7778C15.8889 29.7778 15.8889 29.7778 15.8889 29.7778C15.8889 29.7778 15.8889 29.7778 15.8889 29.7778C15.8889 29.7778 15.8889 29.7778 15.8889 29.7778C15.8889 29.7778 15.8889 29.7778 15.8889 29.7778C15.8889 29.7778 15.8889 29.7778 15.8889 29.7778C15.8889 29.7778 15.8889 29.7778 15.8889 29.7778C15.8889 29.7778 15.8889 29.7778 15.8889 29.7778C15.8889 29.7778 15.8889 29.7778 15.8889 29.7778C15.8889 29.7778 15.8889 29.7778 15.8889 29.7778C15.8889 29.7778 15.8889 29.7778 15.8889 29.7778C15.8889 29.7778 15.8889 29.7778 15.8889 29.7778C15.8889 29.7778 15.8889 29.7778 15.8889 29.7778C15.8889 29.7778 15.8889 29.7778 15.8889 29.7778C15.8889 29.7778 15.8889 29.7778 15.8889 29.7778C15.8889 29.7778 15.8889 29.7778 15.8889 29.7778C15.8889 29.7778 15.8889 29.7778 15.8889 29.7778C15.8889 29.7778 15.8889 29.7778 15.8889 29.7778C15.8889 29.7778 15.8889 29.7778 15.8889 29.7778C15.8889 29.7778 15.8889 29.7778 15.8889 29.7778C15.8889 29.7778 15.8889 29.7778 15.8889 29.7778C15.8889 29.7778 15.8889 29.7778 15.8889 29.7778C15.8889 29.7778 15.8889 29.7778 15.8889 29.7778C15.8889 29.7778 15.8889 29.7778 15.8889 29.7778C15.8889 29.7778 15.8889 29.7778 15.8889 29.7778C15.8889 29.7778 15.8889 29.7778 15.8889 29.7778C15.8889 29.7778 15.8889 29.7778 15.8889 29.7778C15.8889 29.7778 15.8889 29.7778 15.8889 29.7778C15.8889 29.7778 15.8889 29.7778 15.8889 29.7778C15.8889 29.7778 15.8889 29.7778 15.8889 29.7778C15.8889 29.7778 15.8889 29.7778 15.8889 29.7778C15.8889 29.7778 15.8889 29.7778 15.8889 29.7778C15.8889 29.7778 15.8889 29.7778 15.8889 29.7778C15.8889 29.7778 15.8889 29.7778 15.8889 29.7778C15.8889 29.7778 15.8889 29.7778 15.8889 29.7778C15.8889 29.7778 15.8889 29.7778 15.8889 29.7778C15.8889 29.7778 15.8889 29.7778 15.8889 29.7778C15.8889 29.7778 15.8889 29.7778 15.8889 29.7778C15.8889 29.7778 15.8889 29.7778 15.8889 29.7778C15.8889 29.7778 15.8889 29.7778 15.8889 29.7778C15.8889 29.7778 15.8889 29.7778 15.8889 29.7778C15.8889 29.7778 15.8889 29.7778 15.8889 29.7778C15.8889 29.7778 15.8889 29.7778 15.8889 29.7778C15.8889 29.7778 15.8889 29.7778 15.8889 29.7778C15.8889 29.7778 15.8889 29.7778 15.8889 29.7778C15.8889 29.7778 15.8889 29.7778 15.8889 29.7778C15.8889 29.7778 15.8889 29.7778 15.8889 29.7778C15.8889 29.7778 15.8889 29.7778 15.8889 29.7778C15.8889 29.7778 15.8889 29.7778 15.8889 29.7778C15.8889 29.7778 15.8889 29.7778 15.8889 29.7778C15.8889 29.7778 15.8889 29.7778 15.8889 29.7778C15.8889 29.7778 15.8889 29.7778 15.8889 29.7778C15.8889 29.7778 15.8889 29.7778 15.8889 29.7778C15.8889 29.7778 15.8889 29.7778 15.8889 29.7778C15.8889 29.7778 15.8889 29.7778 15.8889 29.7778C15.8889 29.7778 15.8889 29.7778 15.8889 29.7778C15.8889 29.7778 15.8889 29.7778 15.8889 29.7778C15.8889 29.7778 15.8889 29.7778 15.8889 29.7778C15.8889 29.7778 15.8889 29.7778 15.8889 29.7778C15.8889 29.7778 15.8889 29.7778 15.8889 29.7778C15.8889 29.7778 15.8889 29.7778 15.8889 29.7778C15.8889 29.7778 15.8889 29.7778 15.8889 29.7778C15.8889 29.7778 15.8889 29.7778 15.8889 29.7778C15.8889 29.7778 15.8889 29.7778 15.8889 29.7778C15.8889 29.7778 15.8889 29.7778 15.8889 29.7778C15.8889 29.7778 15.8889 29.7778 15.8889 29.7778C15.8889 29.7778 15.8889 29.7778 15.8889 29.7778C15.8889 29.7778 15.8889 29.7778 15.8889 29.7778C15.8889 29.7778 15.8889 29.7778 15.8889 29.7778C15.8889 29.7778 15.8889 29.7778 15.8889 29.7778C15.8889 29.7778 15.8889 29.7778 15.8889 29.7778C15.8889 29.7778 15.8889 29.7778 15.8889 29.7778C15.8889 29.7778 15.8889 29.7778 15.8889 29.7778C15.8889 29.7778 15.8889 29.7778 15.8889 29.7778C15.8889 29.7778 15.8889 29.7778 15.8889 29.7778C15.8889 29.7778 15.8889 29.7778 15.8889 29.7778C15.8889 29.7778 15.8889 29.7778 15.8889 29.7778C15.8889 29.7778 15.8889 29.7778 15.8889 29.7778C15.8889 29.7778 15.8889 29.7778 15.8889 29.7778C15.8889 29.7778 15.8889 29.7778 15.8889 29.7778C15.8889 29.7778 15.8889 29.7778 15.8889 29.7778C15.8889 29.7778 15.8889 29.7778 15.8889 29.7778C15.8889 29.7778 15.8889 29.7778 15.8889 29.7778C15.8889 29.7778 15.8889 29.7778 15.8889 29.7778C15.8889 29.7778 15.8889 29.7778 15.8889 29.7778C15.8889 29.7778 15.8889 29.7778 15.8889 29.7778C15.8889 29.7778 15.8889 29.7778 15.8889 29.7778C15.8889 29.7778 15.8889 29.7778 15.8889 29.7778C15.8889 29.7778 15.8889 29.7778 15.8889 29.7778C15.8889 29.7778 15.8889 29.7778 15.8889 29.7778C15.8889 29.7778 15.8889 29.7778 15.8889 29.7778C15.8889 29.7778 15.8889 29.7778 15.8889 29.7778C15.8889 29.7778 15.8889 29.7778 15.8889 29.7778C15.8889 29.7778 15.8889 29.7778 15.8889 29.7778C15.8889 29.7778 15.8889 29.7778 15.8889 29.7778C15.8889 29.7778 15.8889 29.7778 15.8889 29.7778C15.8889 29.7778 15.8889 29.7778 15.8889 29.7778C15.8889 29.7778 15.8889 29.7778 15.8889 29.7778C15.8889 29.7778 15.8889 29.7778 15.8889 29.7778C15.8889 29.7778 15.8889 29.7778 15.8889 29.7778C15.8889 29.7778 15.8889 29.7778 15.8889 29.7778C15.8889 29.7778 15.8889 29.7778 15.8889 29.7778C15.8889 29.7778 15.8889 29.7778 15.8889 29.7778C15.8889 29.7778 15.8889 29.7778 15.8889 29.7778C15.8889 29.7778 15.8889 29.7778 15.8889 29.7778C15.8889 29.7778 15.8889 29.7778 15.8889 29.7778C15.8889 29.7778 15.8889 29.7778 15.8889 29.7778C15.8889 29.7778 15.8889 29.7778 15.8889 29.7778C15.8889 29.7778 15.8889 29.7778 15.8889 29.7778C15.8889 29.7778 15.8889 29.7778 15.8889 29.7778C15.8889 29.7778 15.8889 29.7778 15.8889 29.7778C15.8889 29.7778 15.8889 29.7778 15.8889 29.7778C15.8889 29.7778 15.8889 29.7778 15.8889 29.7778C15.8889 29.7778 15.8889 29.7778 15.8889 29.7778C15.8889 29.7778 15.8889 29.7778 15.8889 29.7778C15.8889 29.7778 15.8889 29.7778 15.8889 29.7778C15.8889 29.7778 15.8889 29.7778 15.8889 29.7778C15.8889 29.7778 15.8889 29.7778 15.8889 29.7778C15.8889 29.7778 15.8889 29.7778 15.8889 29.7778C15.8889 29.7778 15.8889 29.7778 15.8889 29.7778C15.8889 29.7778 15.8889 29.7778 15.8889 29.7778C15.8889 29.7778 15.8889 29.7778 15.8889 29.7778C15.8889 29.7778 15.8889 29.7778 15.8889 29.7778C15.8889 29.7778 15.8889 29.7778 15.8889 29.7778C15.8889 29.7778 15.8889 29.7778 15.8889 29.7778C15.8889 29.7778 15.8889 29.7778 15.8889 29.7778C15.8889 29.7778 15.8889 29.7778 15.8889 29.7778C15.8889 29.7778 15.8889 29.7778 15.8889 29.7778C15.8889 29.7778 15.8889 29.7778 15.8889 29.7778C15.8889 29.7778 15.8889 29.7778 15.8889 29.7778C15.8889 29.7778 15.8889 29.7778 15.8889 29.7778C15.8889 29.7778 15.8889 29.7778 15.8889 29.7778C15.8889 29.7778 15.8889 29.7778 15.8889 29.7778C15.8889 29.7778 15.8889 29.7778 15.8889 29.7778C15.8889 29.7778 15.8889 29.7778 15.8889 29.7778C15.8889 29.7778 15.8889 29.7778 15.8889 29.7778C15.8889 29.7778 15.8889 29.7778 15.8889 29.7778C15.8889 29.7778 15.8889 29.7778 15.8889 29.7778C15.8889 29.7778 15.8889 29.7778 15.8889 29.7778C15.8889 29.7778 15.8889 29.7778 15.8889 29.7778C15.8889 29.7778 15.8889 29.7778 15.8889 29.7778C15.8889 29.7778 15.8889 29.7778 15.8889 29.7778C15.8889 29.7778 15.8889 29.7778 15.8889 29.7778C15.8889 29.7778 15.8889 29.7778 15.8889 29.7778C15.8889 29.7778 15.8889 29.7778 15.8889 29.7778C15.8889 29.7778 15.8889 29.7778 15.8889 29.7778C15.8889 29.7778 15.8889 29.7778 15.8889 29.7778C15.8889 29.7778 15.8889 29.7778 15.8889 29.7778C15.8889 29.7778 15.8889 29.7778 15.8889 29.7778C15.8889 29.7778 15.8889 29.7778 15.8889 29.7778C15.8889 29.7778 15.8889 29.7778 15.8889 29.7778C15.8889 29.7778 15.8889 29.7778 15.8889 29.7778C15.8889 29.7778 15.8889 29.7778 15.8889 29.7778C15.8889 29.7778 15.8889 29.7778 15.8889 29.7778C15.8889 29.7778 15.8889 29.7778 15.8889 29.7778C15.8889 29.7778 15.8889 29.7778 15.8889 29.7778C15.8889 29.7778 15.8889 29.7778 15.8889 29.7778C15.8889 29.7778 15.8889 29.7778 15.8889 29.7778C15.8889 29.7778 15.8889 29.7778 15.8889 29.7778C15.8889 29.7778 15.8889 29.7778 15.8889 29.7778C15.8889 29.7778 15.8889 29.7778 15.8889 29.7778C15.8889 29.7778 15.8889 29.7778 15.8889 29.7778C15.8889 29.7778 15.8889 29.7778 15.8889 29.7778C15.8889 29.7778 15.8889 29.7778 15.8889 29.7778C15.8889 29.7778 15.8889 29.7778 15.8889 29.7778C15.8889 29.7778 15.8889 29.7778 15.8889 29.7778C15.8889 29.7778 15.8889 29.7778 15.8889 29.7778C15.8889 29.7778 15.8889 29.7778 15.8889 29.7778C15.8889 29.7778 15.8889 29.7778 15.8889 29.7778C15.8889 29.7778 15.8889 29.7778 15.8889 29.7778C15.8889 29.7778 15.8889 29.7778 15.8889 29.7778C15.8889 29.7778 15.8889 29.7778 15.8889 29.7778C15.8889 29.7778 15.8889 29.7778 15.8889 29.7778C15.8889 29.7778 15.8889 29.7778 15.8889 29.7778C15.8889 29.7778 15.8889 29.7778 15.8889 29.7778C15.8889 29.7778 15.8889 29.7778 15.8889 29.7778C15.8889 29.7778 15.8889 29.7778 15.8889 29.7778C15.8889 29.7778 15.8889 29.7778 15.8889 29.7778C15.8889 29.7778 15.8889 29.7778 15.8889 29.7778C15.8889 29.7778 15.8889 29.7778 15.8889 29.7778C15.8889 29.7778 15.8889 29.7778 15.8889 29.7778C15.8889 29.7778 15.8889 29.7778 15.8889 29.7778C15.8889 29.7778 15.8889 29.7778 15.8889 29.7778C15.8889 29.7778 15.8889 29.7778 15.8889 29.7778C15.8889 29.7778 15.8889 29.7778 15.8889 29.7778C15.8889 29.7778 15.8889 29.7778 15.8889 29.7778C15.8889 29.7778 15.8889 29.7778 15.8889 29.7778C15.8889 29.7778 15.8889 29.7778 15.8889 29.7778C15.8889 29.7778 15.8889 29.7778 15.8889 29.7778C15.8889 29.7778 15.8889 29.7778 15.8889 29.7778C15.8889 29.7778 15.8889 29.7778 15.8889 29.7778C15.8889 29.7778 15.8889 29.7778 15.8889 29.7778C15.8889 29.7778 15.8889 29.7778 15.8889 29.7778C15.8889 29.7778 15.8889 29.7778 15.8889 29.7778C15.8889 29.7778 15.8889 29.7778 15.8889 29.7778C15.8889 29.7778 15.8889 29.7778 15.8889 29.7778C15.8889 29.7778 15.8889 29.7778 15.8889 29.7778C15.8889 29.7778 15.8889 29.7778 15.8889 29.7778C15.8889 29.7778 15.8889 29.7778 15.8889 29.7778C15.8889 29.7778 15.8889 29.7778 15.8889 29.7778C15.8889 29.7778 15.8889 29.7778 15.8889 29.7778C15.8889 29.7778 15.8889 29.7778 15.8889 29.7778C15.8889 29.7778 15.8889 29.7778 15.8889 29.7778C15.8889 29.7778 15.8889 29.7778 15.8889 29.7778C15.8889 29.7778 15.8889 29.7778 15.8889 29.7778C15.8889 29.7778 15.8889 29.7778 15.8889 29.7778C15.8889 29.7778 15.8889 29.7778 15.8889 29.7778C15.8889 29.7778 15.8889 29.7778 15.8889 29.7778C15.8889 29.7778 15.8889 29.7778 15.8889 29.7778C15.8889 29.7778 15.8889 29.7778 15.8889 29.7778C15.8889 29.7778 15.8889 29.7778 15.8889 29.7778C15.8889 29.7778 15.8889 29.7778 15.8889 29.7778C15.8889 29.7778 15.8889 29.7778 15.8889 29.7778C15.8889 29.7778 15.8889 29.7778 15.8889 29.7778C15.8889 29.7778 15.8889 29.7778 15.8889 29.7778C15.8889 29.7778 15.8889 29.7778 15.8889 29.7778C15.8889 29.7778 15.8889 29.7778 15.8889 29.7778C15.8889 29.7778 15.8889 29.7778 15.8889 29.7778C15.8889 29.7778 15.8889 29.7778 15.8889 29.7778C15.8889 29.7778 15.8889 29.7778 15.8889 29.7778C15.8889 29.7778 15.8889 29.7778 15.8889 29.7778C15.8889 29.7778 15.8889 29.7778 15.8889 29.7778C15.8889 29.7778 15.8889 29.7778 15.8889 29.7778C15.8889 29.7778 15.8889 29.7778 15.8889 29.7778C15.8889 29.7778 15.8889 29.7778 15.8889 29.7778C15.8889 29.7778 15.8889 29.7778 15.8889 29.7778C15.8889 29.7778 15.8889 29.7778 15.8889 29.7778C15.8889 29.7778 15.8889 29.7778 15.8889 29.7778C15.8889 29.7778 15.8889 29.7778 15.8889 29.7778C15.8889 29.7778 15.8889 29.7778 15.8889 29.7778C15.8889 29.7778 15.8889 29.7778 15.8889 29.7778C15.8889 29.7778 15.8889 29.7778 15.8889 29.7778C15.8889 29.7778 15.8889 29.7778 15.8889 29.7778C15.8889 29.7778 15.8889 29.7778 15.8889 29.7778C15.8889 29.7778 15.8889 29.7778 15.8889 29.7778C15.8889 29.7778 15.8889 29.7778 15.8889 29.7778C15.8889 29.7778 15.8889 29.7778 15.8889 29.7778C15.8889 29.7778 15.8889 29.7778 15.8889 29.7778C15.8889 29.7778 15.8889 29.7778 15.8889 29.7778C15.8889 29.7778 15.8889 29.7778 15.8889 29.7778C15.8889 29.7778 15.8889 29.7778 15.8889 29.7778C15.8889 29.7778 15.8889 29.7778 15.8889 29.7778C15.8889 29.7778 15.8889 29.7778 15.8889 29.7778C15.8889 29.7778 15.8889 29.7778 15.8889 29.7778C15.8889 29.7778 15.8889 29.7778 15.8889 29.7778C15.8889 29.7778 15.8889 29.7778 15.8889 29.7778C15.8889 29.7778 15.8889 29.7778 15.8889 29.7778C15.8889 29.7778 15.8889 29.7778 15.8889 29.7778C15.8889 29.7778 15.8889 29.7778 15.8889 29.7778C15.8889 29.7778 15.8889 29.7778 15.8889 29.7778C15.8889 29.7778 15.8889 29.7778 15.8889 29.7778V33.7778C15.8889 33.7778 15.8889 33.7778 15.8889 33.7778C15.8889 33.7778 15.8889 33.7778 15.8889 33.7778C15.8889 33.7778 15.8889 33.7778 15.8889 33.7778C15.8889 33.7778 15.8889 33.7778 15.8889 33.7778C15.8889 33.7778 15.8889 33.7778 15.8889 33.7778C15.8889 33.7778 15.8889 33.7778 15.8889 33.7778C15.8889 33.7778 15.8889 33.7778 15.8889 33.7778C15.8889 33.7778 15.8889 33.7778 15.8889 33.7778C15.8889 33.7778 15.8889 33.7778 15.8889 33.7778C15.8889 33.7778 15.8889 33.7778 15.8889 33.7778C15.8889 33.7778 15.8889 33.7778 15.8889 33.7778C15.8889 33.7778 15.8889 33.7778 15.8889 33.7778C15.8889 33.7778 15.8889 33.7778 15.8889 33.7778C15.8889 33.7778 15.8889 33.7778 15.8889 33.7778C15.8889 33.7778 15.8889 33.7778 15.8889 33.7778C15.8889 33.7778 15.8889 33.7778 15.8889 33.7778C15.8889 33.7778 15.8889 33.7778 15.8889 33.7778C15.8889 33.7778 15.8889 33.7778 15.8889 33.7778C15.8889 33.7778 15.8889 33.7778 15.8889 33.7778C15.8889 33.7778 15.8889 33.7778 15.8889 33.7778C15.8889 33.7778 15.8889 33.7778 15.8889 33.7778C15.8889 33.7778 15.8889 33.7778 15.8889 33.7778C15.8889 33.7778 15.8889 33.7778 15.8889 33.7778C15.8889 33.7778 15.8889 33.7778 15.8889 33.7778C15.8889 33.7778 15.8889 33.7778 15.8889 33.7778C15.8889 33.7778 15.8889 33.7778 15.8889 33.7778C15.8889 33.7778 15.8889 33.7778 15.8889 33.7778C15.8889 33.7778 15.8889 33.7778 15.8889 33.7778C15.8889 33.7778 15.8889 33.7778 15.8889 33.7778C15.8889 33.7778 15.8889 33.7778 15.8889 33.7778C15.8889 33.7778 15.8889 33.7778 15.8889 33.7778C15.8889 33.7778 15.8889 33.7778 15.8889 33.7778C15.8889 33.7778 15.8889 33.7778 15.8889 33.7778C15.8889 33.7778 15.8889 33.7778 15.8889 33.7778C15.8889 33.7778 15.8889 33.7778 15.8889 33.7778C15.8889 33.7778 15.8889 33.7778 15.8889 33.7778C15.8889 33.7778 15.8889 33.7778 15.8889 33.7778C15.8889 33.7778 15.8889 33.7778 15.8889 33.7778C15.8889 33.7778 15.8889 33.7778 15.8889 33.7778C15.8889 33.7778 15.8889 33.7778 15.8889 33.7778C15.8889 33.7778 15.8889 33.7778 15.8889 33.7778C15.8889 33.7778 15.8889 33.7778 15.8889 33.7778C15.8889 33.7778 15.8889 33.7778 15.8889 33.7778C15.8889 33.7778 15.8889 33.7778 15.8889 33.7778C15.8889 33.7778 15.8889 33.7778 15.8889 33.7778C15.8889 33.7778 15.8889 33.7778 15.8889 33.7778C15.8889 33.7778 15.8889 33.7778 15.8889 33.7778C15.8889 33.7778 15.8889 33.7778 15.8889 33.7778C15.8889 33.7778 15.8889 33.7778 15.8889 33.7778C15.8889 33.7778 15.8889 33.7778 15.8889 33.7778C15.8889 33.7778 15.8889 33.7778 15.8889 33.7778C15.8889 33.7778 15.8889 33.7778 15.8889 33.7778C15.8889 33.7778 15.8889 33.7778 15.8889 33.7778C15.8889 33.7778 15.8889 33.7778 15.8889 33.7778C15.8889 33.7778 15.8889 33.7778 15.8889 33.7778C15.8889 33.7778 15.8889 33.7778 15.8889 33.7778C15.8889 33.7778 15.8889 33.7778 15.8889 33.7778C15.8889 33.7778 15.8889 33.7778 15.8889 33.7778C15.8889 33.7778 15.8889 33.7778 15.8889 33.7778C15.8889 33.7778 15.8889 33.7778 15.8889 33.7778C15.8889 33.7778 15.8889 33.7778 15.8889 33.7778C15.8889 33.7778 15.8889 33.7778 15.8889 33.7778C15.8889 33.7778 15.8889 33.7778 15.8889 33.7778C15.8889 33.7778 15.8889 33.7778 15.8889 33.7778C15.8889 33.7778 15.8889 33.7778 15.8889 33.7778C15.8889 33.7778 15.8889 33.7778 15.8889 33.7778C15.8889 33.7778 15.8889 33.7778 15.8889 33.7778C15.8889 33.7778 15.8889 33.7778 15.8889 33.7778C15.8889 33.7778 15.8889 33.7778 15.8889 33.7778C15.8889 33.7778 15.8889 33.7778 15.8889 33.7778C15.8889 33.7778 15.8889 33.7778 15.8889 33.7778C15.8889 33.7778 15.8889 33.7778 15.8889 33.7778C15.8889 33.7778 15.8889 33.7778 15.8889 33.7778C15.8889 33.7778 15.8889 33.7778 15.8889 33.7778C15.8889 33.7778 15.8889 33.7778 15.8889 33.7778C15.8889 33.7778 15.8889 33.7778 15.8889 33.7778C15.8889 33.7778 15.8889 33.7778 15.8889 33.7778C15.8889 33.7778 15.8889 33.7778 15.8889 33.7778C15.8889 33.7778 15.8889 33.7778 15.8889 33.7778C15.8889 33.7778 15.8889 33.7778 15.8889 33.7778C15.8889 33.7778 15.8889 33.7778 15.8889 33.7778C15.8889 33.7778 15.8889 33.7778 15.8889 33.7778C15.8889 33.7778 15.8889 33.7778 15.8889 33.7778C15.8889 33.7778 15.8889 33.7778 15.8889 33.7778C15.8889 33.7778 15.8889 33.7778 15.8889 33.7778C15.8889 33.7778 15.8889 33.7778 15.8889 33.7778C15.8889 33.7778 15.8889 33.7778 15.8889 33.7778C15.8889 33.7778 15.8889 33.7778 15.8889 33.7778C15.8889 33.7778 15.8889 33.7778 15.8889 33.7778C15.8889 33.7778 15.8889 33.7778 15.8889 33.7778C15.8889 33.7778 15.8889 33.7778 15.8889 33.7778C15.8889 33.7778 15.8889 33.7778 15.8889 33.7778C15.8889 33.7778 15.8889 33.7778 15.8889 33.7778C15.8889 33.7778 15.8889 33.7778 15.8889 33.7778C15.8889 33.7778 15.8889 33.7778 15.8889 33.7778C15.8889 33.7778 15.8889 33.7778 15.8889 33.7778C15.8889 33.7778 15.8889 33.7778 15.8889 33.7778C15.8889 33.7778 15.8889 33.7778 15.8889 33.7778C15.8889 33.7778 15.8889 33.7778 15.8889 33.7778C15.8889 33.7778 15.8889 33.7778 15.8889 33.7778C15.8889 33.7778 15.8889 33.7778 15.8889 33.7778C15.8889 33.7778 15.8889 33.7778 15.8889 33.7778C15.8889 33.7778 15.8889 33.7778 15.8889 33.7778C15.8889 33.7778 15.8889 33.7778 15.8889 33.7778C15.8889 33.7778 15.8889 33.7778 15.8889 33.7778C15.8889 33.7778 15.8889 33.7778 15.8889 33.7778C15.8889 33.7778 15.8889 33.7778 15.8889 33.7778C15.8889 33.7778 15.8889 33.7778 15.8889 33.7778C15.8889 33.7778 15.8889 33.7778 15.8889 33.7778C15.8889 33.7778 15.8889 33.7778 15.8889 33.7778C15.8889 33.7778 15.8889 33.7778 15.8889 33.7778C15.8889 33.7778 15.8889 33.7778 15.8889 33.7778C15.8889 33.7778 15.8889 33.7778 15.8889 33.7778C15.8889 33.7778 15.8889 33.7778 15.8889 33.7778C15.8889 33.7778 15.8889 33.7778 15.8889 33.7778C15.8889 33.7778 15.8889 33.7778 15.8889 33.7778C15.8889 33.7778 15.8889 33.7778 15.8889 33.7778C15.8889 33.7778 15.8889 33.7778 15.8889 33.7778C15.8889 33.7778 15.8889 33.7778 15.8889 33.7778C15.8889 33.7778 15.8889 33.7778 15.8889 33.7778C15.8889 33.7778 15.8889 33.7778 15.8889 33.7778C15.8889 33.7778 15.8889 33.7778 15.8889 33.7778C15.8889 33.7778 15.8889 33.7778 15.8889 33.7778C15.8889 33.7778 15.8889 33.7778 15.8889 33.7778C15.8889 33.7778 15.8889 33.7778 15.8889 33.7778C15.8889 33.7778 15.8889 33.7778 15.8889 33.7778C15.8889 33.7778 15.8889 33.7778 15.8889 33.7778C15.8889 33.7778 15.8889 33.7778 15.8889 33.7778C15.8889 33.7778 15.8889 33.7778 15.8889 33.7778C15.8889 33.7778 15.8889 33.7778 15.8889 33.7778C15.8889 33.7778 15.8889 33.7778 15.8889 33.7778C15.8889 33.7778 15.8889 33.7778 15.8889 33.7778C15.8889 33.7778 15.8889 33.7778 15.8889 33.7778C15.8889 33.7778 15.8889 33.7778 15.8889 33.7778C15.8889 33.7778 15.8889 33.7778 15.8889 33.7778C15.8889 33.7778 15.8889 33.7778 15.8889 33.7778C15.8889 33.7778 15.8889 33.7778 15.8889 33.7778C15.8889 33.7778 15.8889 33.7778 15.8889 33.7778C15.8889 33.7778 15.8889 33.7778 15.8889 33.7778C15.8889 33.7778 15.8889 33.7778 15.8889 33.7778C15.8889 33.7778 15.8889 33.7778 15.8889 33.7778C15.8889 33.7778 15.8889 33.7778 15.8889 33.7778C15.8889 33.7778 15.8889 33.7778 15.8889 33.7778C15.8889 33.7778 15.8889 33.7778 15.8889 33.7778C15.8889 33.7778 15.8889 33.7778 15.8889 33.7778C15.8889 33.7778 15.8889 33.7778 15.8889 33.7778C15.8889 33.7778 15.8889 33.7778 15.8889 33.7778C15.8889 33.7778 15.8889 33.7778 15.8889 33.7778C15.8889 33.7778 15.8889 33.7778 15.8889 33.7778C15.8889 33.7778 15.8889 33.7778 15.8889 33.7778C15.8889 33.7778 15.8889 33.7778 15.8889 33.7778C15.8889 33.7778 15.8889 33.7778 15.8889 33.7778C15.8889 33.7778 15.8889 33.7778 15.8889 33.7778C15.8889 33.7778 15.8889 33.7778 15.8889 33.7778C15.8889 33.7778 15.8889 33.7778 15.8889 33.7778C15.8889 33.7778 15.8889 33.7778 15.8889 33.7778C15.8889 33.7778 15.8889 33.7778 15.8889 33.7778C15.8889 33.7778 15.8889 33.7778 15.8889 33.7778C15.8889 33.7778 15.8889 33.7778 15.8889 33.7778C15.8889 33.7778 15.8889 33.7778 15.8889 33.7778C15.8889 33.7778 15.8889 33.7778 15.8889 33.7778C15.8889 33.7778 15.8889 33.7778 15.8889 33.7778C15.8889 33.7778 15.8889 33.7778 15.8889 33.7778C15.8889 33.7778 15.8889 33.7778 15.8889 33.7778C15.8889 33.7778 15.8889 33.7778 15.8889 33.7778C15.8889 33.7778 15.8889 33.7778 15.8889 33.7778C15.8889 33.7778 15.8889 33.7778 15.8889 33.7778C15.8889 33.7778 15.8889 33.7778 15.8889 33.7778C15.8889 33.7778 15.8889 33.7778 15.8889 33.7778C15.8889 33.7778 15.8889 33.7778 15.8889 33.7778C15.8889 33.7778 15.8889 33.7778 15.8889 33.7778C15.8889 33.7778 15.8889 33.7778 15.8889 33.7778C15.8889 33.7778 15.8889 33.7778 15.8889 33.7778C15.8889 33.7778 15.8889 33.7778 15.8889 33.7778C15.8889 33.7778 15.8889 33.7778 15.8889 33.7778C15.8889 33.7778 15.8889 33.7778 15.8889 33.7778C15.8889 33.7778 15.8889 33.7778 15.8889 33.7778C15.8889 33.7778 15.8889 33.7778 15.8889 33.7778C15.8889 33.7778 15.8889 33.7778 15.8889 33.7778C15.8889 33.7778 15.8889 33.7778 15.8889 33.7778C15.8889 33.7778 15.8889 33.7778 15.8889 33.7778C15.8889 33.7778 15.8889 33.7778 15.8889 33.7778C15.8889 33.7778 15.8889 33.7778 15.8889 33.7778C15.8889 33.7778 15.8889 33.7778 15.8889 33.7778C15.8889 33.7778 15.8889 33.7778 15.8889 33.7778C15.8889 33.7778 15.8889 33.7778 15.8889 33.7778C15.8889 33.7778 15.8889 33.7778 15.8889 33.7778C15.8889 33.7778 15.8889 33.7778 15.8889 33.7778C15.8889 33.7778 15.8889 33.7778 15.8889 33.7778C15.8889 33.7778 15.8889 33.7778 15.8889 33.7778C15.8889 33.7778 15.8889 33.7778 15.8889 33.7778C15.8889 33.7778 15.8889 33.7778 15.8889 33.7778C15.8889 33.7778 15.8889 33.7778 15.8889 33.7778C15.8889 33.7778 15.8889 33.7778 15.8889 33.7778C15.8889 33.7778 15.8889 33.7778 15.8889 33.7778C15.8889 33.7778 15.8889 33.7778 15.8889 33.7778C15.8889 33.7778 15.8889 33.7778 15.8889 33.7778C15.8889 33.7778 15.8889 33.7778 15.8889 33.7778C15.8889 33.7778 15.8889 33.7778 15.8889 33.7778C15.8889 33.7778 15.8889 33.7778 15.8889 33.7778C15.8889 33.7778 15.8889 33.7778 15.8889 33.7778C15.8889 33.7778 15.8889 33.7778 15.8889 33.7778C15.8889 33.7778 15.8889 33.7778 15.8889 33.7778C15.8889 33.7778 15.8889 33.7778 15.8889 33.7778C15.8889 33.7778 15.8889 33.7778 15.8889 33.7778C15.8889 33.7778 15.8889 33.7778 15.8889 33.7778C15.8889 33.7778 15.8889 33.7778 15.8889 33.7778C15.8889 33.7778 15.8889 33.7778 15.8889 33.7778C15.8889 33.7778 15.8889 33.7778 15.8889 33.7778C15.8889 33.7778 15.8889 33.7778 15.8889 33.7778C15.8889 33.7778 15.8889 33.7778 15.8889 33.7778C15.8889 33.7778 15.8889 33.7778 15.8889 33.7778C15.8889 33.7778 15.8889 33.7778 15.8889 33.7778C15.8889 33.7778 15.8889 33.7778 15.8889 33.7778C15.8889 33.7778 15.8889 33.7778 15.8889 33.7778C15.8889 33.7778 15.8889 33.7778 15.8889 33.7778C15.8889 33.7778 15.8889 33.7778 15.8889 33.7778C15.8889 33.7778 15.8889 33.7778 15.8889 33.7778C15.8889 33.7778 15.8889 33.7778 15.8889 33.7778C15.8889 33.7778 15.8889 33.7778 15.8889 33.7778C15.8889 33.7778 15.8889 33.7778 15.8889 33.7778C15.8889 33.7778 15.8889 33.7778 15.8889 33.7778C15.8889 33.7778 15.8889 33.7778 15.8889 33.7778C15.8889 33.7778 15.8889 33.7778 15.8889 33.7778C15.8889 33.7778 15.8889 33.7778 15.8889 33.7778C15.8889 33.7778 15.8889 33.7778 15.8889 33.7778C15.8889 33.7778 15.8889 33.7778 15.8889 33.7778C15.8889 33.7778 15.8889 33.7778 15.8889 33.7778C15.8889 33.7778 15.8889 33.7778 15.8889 33.7778C15.8889 33.7778 15.8889 33.7778 15.8889 33.7778C15.8889 33.7778 15.8889 33.7778 15.8889 33.7778C15.8889 33.7778 15.8889 33.7778 15.8889 33.7778C15.8889 33.7778 15.8889 33.7778 15.8889 33.7778C15.8889 33.7778 15.8889 33.7778 15.8889 33.7778C15.8889 33.7778 15.8889 33.7778 15.8889 33.7778C15.8889 33.7778 15.8889 33.7778 15.8889 33.7778C15.8889 33.7778 15.8889 33.7778 15.8889 33.7778C15.8889 33.7778 15.8889 33.7778 15.8889 33.7778C15.8889 33.7778 15.8889 33.7778 15.8889 33.7778C15.8889 33.7778 15.8889 33.7778 15.8889 33.7778C15.8889 33.7778 15.8889 33.7778 15.8889 33.7778C15.8889 33.7778 15.8889 33.7778 15.8889 33.7778C15.8889 33.7778 15.8889 33.7778 15.8889 33.7778C15.8889 33.7778 15.8889 33.7778 15.8889 33.7778C15.8889 33.7778 15.8889 33.7778 15.8889 33.7778C15.8889 33.7778 15.8889 33.7778 15.8889 33.7778C15.8889 33.7778 15.8889 33.7778 15.8889 33.7778C15.8889 33.7778 15.8889 33.7778 15.8889 33.7778C15.8889 33.7778 15.8889 33.7778 15.8889 33.7778C15.8889 33.7778 15.8889 33.7778 15.8889 33.7778C15.8889 33.7778 15.8889 33.7778 15.8889 33.7778C15.8889 33.7778 15.8889 33.7778 15.8889 33.7778C15.8889 33.7778 15.8889 33.7778 15.8889 33.7778C15.8889 33.7778 15.8889 33.7778 15.8889 33.7778C15.8889 33.7778 15.8889 33.7778 15.8889 33.7778C15.8889 33.7778 15.8889 33.7778 15.8889 33.7778C15.8889 33.7778 15.8889 33.7778 15.8889 33.7778C15.8889 33.7778 15.8889 33.7778 15.8889 33.7778C15.8889 33.7778 15.8889 33.7778 15.8889 33.7778C15.8889 33.7778 15.8889 33.7778 15.8889 33.7778C15.8889 33.7778 15.8889 33.7778 15.8889 33.7778C15.8889 33.7778 15.8889 33.7778 15.8889 33.7778C15.8889 33.7778 15.8889 33.7778 15.8889 33.7778C15.8889 33.7778 15.8889 33.7778 15.8889 33.7778C15.8889 33.7778 15.8889 33.7778 15.8889 33.7778C15.8889 33.7778 15.8889 33.7778 15.8889 33.7778C15.8889 33.7778 15.8889 33.7778 15.8889 33.7778C15.8889 33.7778 15.8889 33.7778 15.8889 33.7778C15.8889 33.7778 15.8889 33.7778 15.8889 33.7778C15.8889 33.7778 15.8889 33.7778 15.8889 33.7778C15.8889 33.7778 15.8889 33.7778 15.8889 33.7778C15.8889 33.7778 15.8889 33.7778 15.8889 33.7778C15.8889 33.7778 15.8889 33.7778 15.8889 33.7778C15.8889 33.7778 15.8889 33.7778 15.8889 33.7778C15.8889 33.7778 15.8889 33.7778 15.8889 33.7778C15.8889 33.7778 15.8889 33.7778 15.8889 33.7778C15.8889 33.7778 15.8889 33.7778 15.8889 33.7778C15.8889 33.7778 15.8889 33.7778 15.8889 33.7778C15.8889 33.7778 15.8889 33.7778 15.8889 33.7778C15.8889 33.7778 15.8889 33.7778 15.8889 33.7778C15.8889 33.7778 15.8889 33.7778 15.8889 33.7778C15.8889 33.7778 15.8889 33.7778 15.8889 33.7778C15.8889 33.7778 15.8889 33.7778 15.8889 33.7778C15.8889 33.7778 15.8889 33.7778 15.8889 33.7778C15.8889 33.7778 15.8889 33.7778 15.8889 33.7778C15.8889 33.7778 15.8889 33.7778 15.8889 33.7778C15.8889 33.7778 15.8889 33.7778 15.8889 33.7778C15.8889 33.7778 15.8889 33.7778 15.8889 33.7778C15.8889 33.7778 15.8889 33.7778 15.8889 33.7778C15.8889 33.7778 15.8889 33.7778 15.8889 33.7778C15.8889 33.7778 15.8889 33.7778 15.8889 33.7778C15.8889 33.7778 15.8889 33.7778 15.8889 33.7778C15.8889 33.7778 15.8889 33.7778 15.8889 33.7778C15.8889 33.7778 15.8889 33.7778 15.8889 33.7778C15.8889 33.7778 15.8889 33.7778 15.8889 33.7778C15.8889 33.7778 15.8889 33.7778 15.8889 33.7778C15.8889 33.7778 15.8889 33.7778 15.8889 33.7778C15.8889 33.7778 15.8889 33.7778 15.8889 33.7778C15.8889 33.7778 15.8889 33.7778 15.8889 33.7778C15.8889 33.7778 15.8889 33.7778 15.8889 33.7778C15.8889 33.7778 15.8889 33.7778 15.8889 33.7778C15.8889 33.7778 15.8889 33.7778 15.8889 33.7778C15.8889 33.7778 15.8889 33.7778 15.8889 33.7778C15.8889 33.7778 15.8889 33.7778 15.8889 33.7778C15.8889 33.7778 15.8889 33.7778 15.8889 33.7778C15.8889 33.7778 15.8889 33.7778 15.8889 33.7778C15.8889 33.7778 15.8889 33.7778 15.8889 33.7778C15.8889 33.7778 15.8889 33.7778 15.8889 33.7778C15.8889 33.7778 15.8889 33.7778 15.8889 33.7778C15.8889 33.7778 15.8889 33.7778 15.8889 33.7778C15.8889 33.7778 15.8889 33.7778 15.8889 33.7778C15.8889 33.7778 15.8889 33.7778 15.8889 33.7778C15.8889 33.7778 15.8889 33.7778 15.8889 33.7778C15.8889 33.7778 15.8889 33.7778 15.8889 33.7778C15.8889 33.7778 15.8889 33.7778 15.8889 33.7778C15.8889 33.7778 15.8889 33.7778 15.8889 33.7778C15.8889 33.7778 15.8889 33.7778 15.8889 33.7778C15.8889 33.7778 15.8889 33.7778 15.8889 33.7778C15.8889 33.7778 15.8889 33.7778 15.8889 33.7778C15.8889 33.7778 15.8889 33.7778 15.8889 33.7778C15.8889 33.7778 15.8889 33.7778 15.8889 33.7778C15.8889 33.7778 15.8889 33.7778 15.8889 33.7778C15.8889 33.7778 15.8889 33.7778 15.8889 33.7778C15.8889 33.7778 15.8889 33.7778 15.8889 33.7778C15.8889 33.7778 15.8889 33.7778 15.8889 33.7778C15.8889 33.7778 15.8889 33.7778 15.8889 33.7778C15.8889 33.7778 15.8889 33.7778 15.8889 33.7778C15.8889 33.7778 15.8889 33.7778 15.8889 33.7778C15.8889 33.7778 15.8889 33.7778 15.8889 33.7778C15.8889 33.7778 15.8889 33.7778 15.8889 33.7778C15.8889 33.7778 15.8889 33.7778 15.8889 33.7778C15.8889 33.7778 15.8889 33.7778 15.8889 33.7778C15.8889 33.7778 15.8889 33.7778 15.8889 33.7778C15.8889 33.7778 15.8889 33.7778 15.8889 33.7778C15.8889 33.7778 15.8889 33.7778 15.8889 33.7778C15.8889 33.7778 15.8889 33.7778 15.8889 33.7778C15.8889 33.7778 15.8889 33.7778 15.8889 33.7778C15.8889 33.7778 15.8889 33.7778 15.8889 33.7778C15.8889 33.7778 15.8889 33.7778 15.8889 33.7778C15.8889 33.7778 15.8889 33.7778 15.8889 33.7778C15.8889 33.7778 15.8889 33.7778 15.8889 33.7778C15.8889 33.7778 15.8889 33.7778 15.8889 33.7778C15.8889 33.7778 15.8889 33.7778 15.8889 33.7778C15.8889 33.7778 15.8889 33.7778 15.8889 33.7778C15.8889 33.7778 15.8889 33.7778 15.8889 33.7778C15.8889 33.7778 15.8889 33.7778 15.8889 33.7778C15.8889 33.7778 15.8889 33.7778 15.8889 33.7778C15.8889 33.7778 15.8889 33.7778 15.8889 33.7778C15.8889 33.7778 15.8889 33.7778 15.8889 33.7778C15.8889 33.7778 15.8889 33.7778 15.8889 33.7778C15.8889 33.7778 15.8889 33.7778 15.8889 33.7778C15.8889 33.7778 15.8889 33.7778 15.8889 33.7778C15.8889 33.7778 15.8889 33.7778 15.8889 33.7778C15.8889 33.7778 15.8889 33.7778 15.8889 33.7778C15.8889 33.7778 15.8889 33.7778 15.8889 33.7778C15.8889 33.7778 15.8889 33.7778 15.8889 33.7778C15.8889 33.7778 15.8889 33.7778 15.8889 33.7778C15.8889 33.7778 15.8889 33.7778 15.8889 33.7778C15.8889 33.7778 15.8889 33.7778 15.8889 33.7778C15.8889 33.7778 15.8889 33.7778 15.8889 33.7778C15.8889 33.7778 15.8889 33.7778 15.8889 33.7778C15.8889 33.7778 15.8889 33.7778 15.8889 33.7778C15.8889 33.7778 15.8889 33.7778 15.8889 33.7778C15.8889 33.7778 15.8889 33.7778 15.8889 33.7778C15.8889 33.7778 15.8889 33.7778 15.8889 33.7778C15.8889 33.7778 15.8889 33.7778 15.8889 33.7778C15.8889 33.7778 15.8889 33.7778 15.8889 33.7778C15.8889 33.7778 15.8889 33.7778 15.8889 33.7778C15.8889 33.7778 15.8889 33.7778 15.8889 33.7778C15.8889 33.7778 15.8889 33.7778 15.8889 33.7778C15.8889 33.7778 15.8889 33.7778 15.8889 33.7778C15.8889 33.7778 15.8889 33.7778 15.8889 33.7778C15.8889 33.7778 15.8889 33.7778 15.8889 33.7778C15.8889 33.7778 15.8889 33.7778 15.8889 33.7778C15.8889 33.7778 15.8889 33.7778 15.8889 33.7778C15.8889 33.7778 15.8889 33.7778 15.8889 33.7778C15.8889 33.7778 15.8889 33.7778 15.8889 33.7778C15.8889 33.7778 15.8889 33.7778 15.8889 33.7778C15.8889 33.7778 15.8889 33.7778 15.8889 33.7778C15.8889 33.7778 15.8889 33.7778 15.8889 33.7778C15.8889 33.7778 15.8889 33.7778 15.8889 33.7778C15.8889 33.7778 15.8889 33.7778 15.8889 33.7778C15.8889 33.7778 15.8889 33.7778 15.8889 33.7778C15.8889 33.7778 15.8889 33.7778 15.8889 33.7778C15.8889 33.7778 15.8889 33.7778 15.8889 33.7778C15.8889 33.7778 15.8889 33.7778 15.8889 33.7778C15.8889 33.7778 15.8889 33.7778 15.8889 33.7778C15.8889 33.7778 15.8889 33.7778 15.8889 33.7778C15.8889 33.7778 15.8889 33.7778 15.8889 33.7778C15.8889 33.7778 15.8889 33.7778 15.8889 33.7778C15.8889 33.7778 15.8889 33.7778 15.8889 33.7778C15.8889 33.7778 15.8889 33.7778 15.8889 33.7778C15.8889 33.7778 15.8889 33.7778 15.8889 33.7778C15.8889 33.7778 15.8889 33.7778 15.8889 33.7778C15.8889 33.7778 15.8889 33.7778 15.8889 33.7778C15.8889 33.7778 15.8889 33.7778 15.8889 33.7778C15.8889 33.7778 15.8889 33.7778 15.8889 33.7778C15.8889 33.7778 15.8889 33.7778 15.8889 33.7778C15.8889 33.7778 15.8889 33.7778 15.8889 33.7778C15.8889 33.7778 15.8889 33.7778 15.8889 33.7778C15.8889 33.7778 15.8889 33.7778 15.8889 33.7778C15.8889 33.7778 15.8889 33.7778 15.8889 33.7778C15.8889 33.7778 15.8889 33.7778 15.8889 33.7778C15.8889 33.7778 15.8889 33.7778 15.8889 33.7778C15.8889 33.7778 15.8889 33.7778 15.8889 33.7778C15.8889 33.7778 15.8889 33.7778 15.8889 33.7778C15.8889 33.7778 15.8889 33.7778 15.8889 33.7778C15.8889 33.7778 15.8889 33.7778 15.8889 33.7778C15.8889 33.7778 15.8889 33.7778 15.8889 33.7778C15.8889 33.7778 15.8889 33.7778 15.8889 33.7778C15.8889 33.7778 15.8889 33.7778 15.8889 33.7778C15.8889 33.7778 15.8889 33.7778 15.8889 33.7778C15.8889 33.7778 15.8889 33.7778 15.8889 33.7778C15.8889 33.7778 15.8889 33.7778 15.8889 33.7778C15.8889 33.7778 15.8889 33.7778 15.8889 33.7778C15.8889 33.7778 15.8889 33.7778 15.8889 33.7778C15.8889 33.7778 15.8889 33.7778 15.8889 33.7778C15.8889 33.7778 15.8889 33.7778 15.8889 33.7778C15.8889 33.7778 15.8889 33.7778 15.8889 33.7778C15.8889 33.7778 15.8889 33.7778 15.8889 33.7778C15.8889 33.7778 15.8889 33.7778 15.8889 33.7778C15.8889 33.7778 15.8889 33.7778 15.8889 33.7778C15.8889 33.7778 15.8889 33.7778 15.8889 33.7778C15.8889 33.7778 15.8889 33.7778 15.8889 33.7778C15.8889 33.7778 15.8889 33.7778 15.8889 33.7778C15.8889 33.7778 15.8889 33.7778 15.8889 33.7778C15.8889 33.7778 15.8889 33.7778 15.8889 33.7778C15.8889 33.7778 15.8889 33.7778 15.8889 33.7778C15.8889 33.7778 15.8889 33.7778 15.8889 33.7778C15.8889 33.7778 15.8889 33.7778 15.8889 33.7778C15.8889 33.7778 15.8889 33.7778 15.8889 33.7778C15.8889 33.7778 15.8889 33.7778 15.8889 33.7778C15.8889 33.7778 15.8889 33.7778 15.8889 33.7778C15.8889 33.7778 15.8889 33.7778 15.8889 33.7778C15.8889 33.7778 15.8889 33.7778 15.8889 33.7778C15.8889 33.7778 15.8889 33.7778 15.8889 33.7778C15.8889 33.7778 15.8889 33.7778 15.8889 33.7778C15.8889 33.7778 15.8889 33.7778 15.8889 33.7778C15.8889 33.7778 15.8889 33.7778 15.8889 33.7778C15.8889 33.7778 15.8889 33.7778 15.8889 33.7778C15.8889 33.7778 15.8889 33.7778 15.8889 33.7778C15.8889 33.7778 15.8889 33.7778 15.8889 33.7778C15.8889 33.7778 15.8889 33.7778 15.8889 33.7778C15.8889 33.7778 15.8889 33.7778 15.8889 33.7778C15.8889 33.7778 15.8889 33.7778 15.8889 33.7778C15.8889 33.7778 15.8889 33.7778 15.8889 33.7778C15.8889 33.7778 15.8889 33.7778 15.8889 33.7778C15.8889 33.7778 15.8889 33.7778 15.8889 33.7778C15.8889 33.7778 15.8889 33.7778 15.8889 33.7778C15.8889 33.7778 15.8889 33.7778 15.8889 33.7778C15.8889 33.7778 15.8889 33.7778 15.8889 33.7778C15.8889 33.7778 15.8889 33.7778 15.8889 33.7778C15.8889 33.7778 15.8889 33.7778 15.8889 33.7778C15.8889 33.7778 15.8889 33.7778 15.8889 33.7778C15.8889 33.7778 15.8889 33.7778 15.8889 33.7778C15.8889 33.7778 15.8889 33.7778 15.8889 33.7778C15.8889 33.7778 15.8889 33.7778 15.8889 33.7778C15.8889 33.7778 15.8889 33.7778 15.8889 33.7778C15.8889 33.7778 15.8889 33.7778 15.8889 33.7778C15.8889 33.7778 15.8889 33.7778 15.8889 33.7778C15.8889 33.7778 15.8889 33.7778 15.8889 33.7778C15.8889 33.7778 15.8889 33.7778 15.8889 33.7778C15.8889 33.7778 15.8889 33.7778 15.8889 33.7778C15.8889 33.7778 15.8889 33.7778 15.8889 33.7778C15.8889 33.7778 15.8889 33.7778 15.8889 33.7778C15.8889 33.7778 15.8889 33.7778 15.8889 33.7778C15.8889 33.7778 15.8889 33.7778 15.8889 33.7778C15.8889 33.7778 15.8889 33.7778 15.8889 33.7778C15.8889 33.7778 15.8889 33.7778 15.8889 33.7778C15.8889 33.7778 15.8889 33.7778 15.8889 33.7778C15.8889 33.7778 15.8889 33.7778 15.8889 33.7778C15.8889 33.7778 15.8889 33.7778 15.8889 33.7778C15.8889 33.7778 15.8889 33.7778 15.8889 33.7778C15.8889 33.7778 15.8889 33.7778 15.8889 33.7778C15.8889 33.7778 15.8889 33.7778 15.8889 33.7778C15.8889 33.7778 15.8889 33.7778 15.8889 33.7778C15.8889 33.7778 15.8889 33.7778 15.8889 33.7778C15.8889 33.7778 15.8889 33.7778 15.8889 33.7778C15.8889 33.7778 15.8889 33.7778 15.8889 33.7778C15.8889 33.7778 15.8889 33.7778 15.8889 33.7778C15.8889 33.7778 15.8889 33.7778 15.8889 33.7778C15.8889 33.7778 15.8889 33.7778 15.8889 33.7778C15.8889 33.7778 15.8889 33.7778 15.8889 33.7778C15.8889 33.7778 15.8889 33.7778 15.8889 33.7778C15.8889 33.7778 15.8889 33.7778 15.8889 33.7778C15.8889 33.7778 15.8889 33.7778 15.8889 33.7778C15.8889 33.7778 15.8889 33.7778 15.8889 33.7778C15.8889 33.7778 15.8889 33.7778 15.8889 33.7778C15.8889 33.7778 15.8889 33.7778 15.8889 33.7778C15.8889 33.7778 15.8889 33.7778 15.8889 33.7778C15.8889 33.7778 15.8889 33.7778 15.8889 33.7778C15.8889 33.7778 15.8889 33.7778 15.8889 33.7778C15.8889 33.7778 15.8889 33.7778 15.8889 33.7778C15.8889 33.7778 15.8889 33.7778 15.8889 33.7778C15.8889 33.7778 15.8889 33.7778 15.8889 33.7778C15.8889 33.7778 15.8889 33.7778 15.8889 33.7778C15.8889 33.7778 15.8889 33.7778 15.8889 33.7778C15.8889 33.7778 15.8889 33.7778 15.8889 33.7778C15.8889 33.7778 15.8889 33.7778 15.8889 33.7778C15.8889 33.7778 15.8889 33.7778 15.8889 33.7778C15.8889 33.7778 15.8889 33.7778 15.8889 33.7778C15.8889 33.7778 15.8889 33.7778 15.8889 33.7778C15.8889 33.7778 15.8889 33.7778 15.8889 33.7778C15.8889 33.7778 15.8889 33.7778 15.8889 33.7778C15.8889 33.7778 15.8889 33.7778 15.8889 33.7778C15.8889 33.7778 15.8889 33.7778 15.8889 33.7778C15.8889 33.7778 15.8889 33.7778 15.8889 33.7778C15.8889 33.7778 15.8889 33.7778 15.8889 33.7778C15.8889 33.7778 15.8889 33.7778 15.8889 33.7778C15.8889 33.7778 15.8889 33.7778 15.8889 33.7778C15.8889 33.7778 15.8889 33.7778 15.8889 33.7778C15.8889 33.7778 15.8889 33.7778 15.8889 33.7778V29.7778ZM17.8889 50.5185V31.7778H13.8889V50.5185H17.8889ZM16.8889 49.5185C17.4412 49.5185 17.8889 49.9662 17.8889 50.5185H13.8889C13.8889 52.1754 15.2321 53.5185 16.8889 53.5185V49.5185ZM15.8889 50.5185C15.8889 49.9662 16.3366 49.5185 16.8889 49.5185V53.5185C18.5458 53.5185 19.8889 52.1754 19.8889 50.5185H15.8889ZM15.8889 31.6531V50.5185H19.8889V31.6531H15.8889Z" fill="#799FB4" mask="url(#path-3-inside-1)"/>
<circle cx="16.3704" cy="15.8889" r="2.88889" fill="#799FB4"/>
<defs>
<filter id="filter0_f" x="7.66125" y="31.0591" width="45.3387" height="29.9409" filterUnits="userSpaceOnUse" color-interpolation-filters="sRGB">
<feFlood flood-opacity="0" result="BackgroundImageFix"/>
<feBlend mode="normal" in="SourceGraphic" in2="BackgroundImageFix" result="shape"/>
<feGaussianBlur stdDeviation="5" result="effect1_foregroundBlur"/>
</filter>
</defs>
</svg>
