<svg width="53" height="61" viewBox="0 0 53 61" fill="none" xmlns="http://www.w3.org/2000/svg">
<ellipse cx="17.0443" cy="52.9986" rx="1.93939" ry="1.00143" fill="#1D1D1D"/>
<g filter="url(#filter0_f)">
<line x1="17.8306" y1="50.5296" x2="42.8306" y2="41.5296" stroke="#808080"/>
</g>
<mask id="path-3-inside-1" fill="white">
<path fill-rule="evenodd" clip-rule="evenodd" d="M18 32.9192C25.8926 31.9028 32 24.9497 32 16.5235C32 7.39784 24.8366 0 16 0C7.16344 0 0 7.39784 0 16.5235C0 25.6492 7.16344 33.0471 16 33.0471L16 52.5763C16 53.1286 16.4477 53.5763 17 53.5763C17.5523 53.5763 18 53.1286 18 52.5763V32.9192Z"/>
</mask>
<path fill-rule="evenodd" clip-rule="evenodd" d="M18 32.9192C25.8926 31.9028 32 24.9497 32 16.5235C32 7.39784 24.8366 0 16 0C7.16344 0 0 7.39784 0 16.5235C0 25.6492 7.16344 33.0471 16 33.0471L16 52.5763C16 53.1286 16.4477 53.5763 17 53.5763C17.5523 53.5763 18 53.1286 18 52.5763V32.9192Z" fill="white"/>
<path d="M18 32.9192L17.7446 30.9356L16 31.1603V32.9192H18ZM16 33.0471L18 33.0471L18 31.0471H16V33.0471ZM16 52.5763L18 52.5763L18 52.5763L16 52.5763ZM30 16.5235C30 23.9811 24.6031 30.0524 17.7446 30.9356L18.2555 34.9029C27.1821 33.7533 34 25.9183 34 16.5235H30ZM16 2C23.6718 2 30 8.44122 30 16.5235H34C34 6.35446 26.0013 -2 16 -2V2ZM2 16.5235C2 8.44122 8.32822 2 16 2V-2C5.99866 -2 -2 6.35446 -2 16.5235H2ZM16 31.0471C8.32822 31.0471 2 24.6059 2 16.5235H-2C-2 26.6926 5.99866 35.0471 16 35.0471V31.0471ZM18 52.5763L18 33.0471L14 33.0471L14 52.5763L18 52.5763ZM17 51.5763C17.5523 51.5763 18 52.024 18 52.5763H14C14 54.2332 15.3432 55.5763 17 55.5763V51.5763ZM16 52.5763C16 52.024 16.4477 51.5763 17 51.5763V55.5763C18.6569 55.5763 20 54.2332 20 52.5763H16ZM16 32.9192V52.5763H20V32.9192H16Z" fill="#00A3FF" mask="url(#path-3-inside-1)"/>
<ellipse cx="16.4848" cy="16.5235" rx="2.90909" ry="3.00428" fill="#00A3FF"/>
<defs>
<filter id="filter0_f" x="7.66125" y="31.0591" width="45.3387" height="29.9409" filterUnits="userSpaceOnUse" color-interpolation-filters="sRGB">
<feFlood flood-opacity="0" result="BackgroundImageFix"/>
<feBlend mode="normal" in="SourceGraphic" in2="BackgroundImageFix" result="shape"/>
<feGaussianBlur stdDeviation="5" result="effect1_foregroundBlur"/>
</filter>
</defs>
</svg>
