<svg width="111" height="131" viewBox="0 0 111 131" fill="none" xmlns="http://www.w3.org/2000/svg">
<g filter="url(#filter0_d)">
<mask id="path-1-inside-1" fill="white">
<path fill-rule="evenodd" clip-rule="evenodd" d="M39 0C17.4609 0 0 17.4609 0 39V54C0 73.6324 14.5064 89.8767 33.3851 92.5988C33.4106 92.8109 33.4594 93.0247 33.5336 93.2375L43.1672 120.873C44.1026 123.557 47.8974 123.557 48.8328 120.873L58.4664 93.2375C58.5593 92.9711 58.6124 92.703 58.6297 92.4388C77.011 89.291 91 73.2791 91 54V39C91 17.4609 73.5391 0 52 0H39Z"/>
</mask>
<path fill-rule="evenodd" clip-rule="evenodd" d="M39 0C17.4609 0 0 17.4609 0 39V54C0 73.6324 14.5064 89.8767 33.3851 92.5988C33.4106 92.8109 33.4594 93.0247 33.5336 93.2375L43.1672 120.873C44.1026 123.557 47.8974 123.557 48.8328 120.873L58.4664 93.2375C58.5593 92.9711 58.6124 92.703 58.6297 92.4388C77.011 89.291 91 73.2791 91 54V39C91 17.4609 73.5391 0 52 0H39Z" fill="white"/>
<path d="M33.3851 92.5988L34.378 92.4796L34.2866 91.7184L33.5278 91.609L33.3851 92.5988ZM33.5336 93.2375L32.5893 93.5666L32.5893 93.5667L33.5336 93.2375ZM43.1672 120.873L42.2229 121.203L42.2229 121.203L43.1672 120.873ZM48.8328 120.873L49.7771 121.203L49.7771 121.203L48.8328 120.873ZM58.4664 93.2375L59.4107 93.5667L59.4107 93.5666L58.4664 93.2375ZM58.6297 92.4388L58.4609 91.4531L57.6834 91.5863L57.6319 92.3735L58.6297 92.4388ZM1 39C1 18.0132 18.0132 1 39 1V-1C16.9086 -1 -1 16.9086 -1 39H1ZM1 54V39H-1V54H1ZM33.5278 91.609C15.1341 88.9569 1 73.1282 1 54H-1C-1 74.1367 13.8787 90.7965 33.2424 93.5886L33.5278 91.609ZM34.4779 92.9083C34.4274 92.7636 34.3949 92.6202 34.378 92.4796L32.3922 92.718C32.4263 93.0016 32.4914 93.2858 32.5893 93.5666L34.4779 92.9083ZM44.1115 120.544L34.4779 92.9083L32.5893 93.5667L42.2229 121.203L44.1115 120.544ZM47.8885 120.544C47.265 122.333 44.735 122.333 44.1115 120.544L42.2229 121.203C43.4701 124.78 48.5299 124.78 49.7771 121.203L47.8885 120.544ZM57.5221 92.9083L47.8885 120.544L49.7771 121.203L59.4107 93.5667L57.5221 92.9083ZM57.6319 92.3735C57.6204 92.548 57.5853 92.7273 57.5221 92.9083L59.4107 93.5666C59.5333 93.2149 59.6044 92.8581 59.6276 92.5041L57.6319 92.3735ZM90 54C90 72.7838 76.3702 88.3862 58.4609 91.4531L58.7985 93.4244C77.6518 90.1958 92 73.7745 92 54H90ZM90 39V54H92V39H90ZM52 1C72.9868 1 90 18.0132 90 39H92C92 16.9086 74.0914 -1 52 -1V1ZM39 1H52V-1H39V1Z" fill="black" mask="url(#path-1-inside-1)"/>
</g>
<defs>
<filter id="filter0_d" x="0" y="0" width="111" height="130.886" filterUnits="userSpaceOnUse" color-interpolation-filters="sRGB">
<feFlood flood-opacity="0" result="BackgroundImageFix"/>
<feColorMatrix in="SourceAlpha" type="matrix" values="0 0 0 0 0 0 0 0 0 0 0 0 0 0 0 0 0 0 127 0"/>
<feOffset dx="16" dy="4"/>
<feGaussianBlur stdDeviation="2"/>
<feColorMatrix type="matrix" values="0 0 0 0 0 0 0 0 0 0 0 0 0 0 0 0 0 0 0.1 0"/>
<feBlend mode="normal" in2="BackgroundImageFix" result="effect1_dropShadow"/>
<feBlend mode="normal" in="SourceGraphic" in2="effect1_dropShadow" result="shape"/>
</filter>
</defs>
</svg>
